<svg width="90" height="176" viewBox="0 0 90 176" fill="none" xmlns="http://www.w3.org/2000/svg">
<path d="M2.71253 3.45809C33.8814 10.7611 28.1791 8.8238 52.4497 28.3829C57.9929 32.8501 66.4402 38.6547 68.0203 44.7901C70.352 53.8443 50.7384 75.4277 39.704 63.5084C32.5728 55.8053 34.749 45.7162 46.4271 45.4662C65.5785 45.0563 79.7992 61.6993 84.856 74.5055C90.4232 88.6044 84.0452 101.312 68.2617 106.479C61.0513 108.839 49.9754 104.646 56.6878 97.761C70.4941 83.5986 83.6825 107.299 80.9249 118.106C75.9581 137.57 44.0603 157.613 16.2346 147.271C7.53469 144.038 10.6122 141.723 14.4524 140.351C18.3492 138.958 28.3215 132.946 25.582 135.457C20.7927 139.847 15.0382 140.779 8.55867 142.558C0.201336 144.853 16.9101 157.483 21.7093 161.738C24.2286 163.971 27.7986 168.522 28.3235 171.384C29.3599 177.035 20.1709 160.858 18.7172 155.213" stroke="black" stroke-width="5" stroke-linecap="round" stroke-linejoin="round"/>
</svg>
